{
	"asset":{
		"generator":"Khronos glTF Blender I/O v3.6.27",
		"version":"2.0"
	},
	"scene":0,
	"scenes":[
		{
			"name":"Scene",
			"nodes":[
				0,
				1
			]
		}
	],
	"nodes":[
		{
			"mesh":0,
			"name":"Can"
		},
		{
			"mesh":1,
			"name":"tab",
			"scale":[
				0.5570480227470398,
				0.5570480227470398,
				0.5570480227470398
			],
			"translation":[
				-0.740553617477417,
				-0.010540008544921875,
				0
			]
		}
	],
	"materials":[
		{
			"doubleSided":true,
			"name":"Top of can",
			"pbrMetallicRoughness":{
				"baseColorFactor":[
					0.800000011920929,
					0.800000011920929,
					0.800000011920929,
					1
				],
				"roughnessFactor":0.30000001192092896
			}
		}
	],
	"meshes":[
		{
			"name":"Circle",
			"primitives":[
				{
					"attributes":{
						"POSITION":0,
						"NORMAL":1,
						"TEXCOORD_0":2
					},
					"indices":3,
					"material":0
				}
			]
		},
		{
			"name":"Circle.001",
			"primitives":[
				{
					"attributes":{
						"POSITION":4,
						"NORMAL":5,
						"TEXCOORD_0":6
					},
					"indices":7
				}
			]
		}
	],
	"accessors":[
		{
			"bufferView":0,
			"componentType":5126,
			"count":1253,
			"max":[
				2.4465818405151367,
				0.367338091135025,
				3.409036874771118
			],
			"min":[
				-4.348204612731934,
				-12.903928756713867,
				-3.409036874771118
			],
			"type":"VEC3"
		},
		{
			"bufferView":1,
			"componentType":5126,
			"count":1253,
			"type":"VEC3"
		},
		{
			"bufferView":2,
			"componentType":5126,
			"count":1253,
			"type":"VEC2"
		},
		{
			"bufferView":3,
			"componentType":5123,
			"count":7506,
			"type":"SCALAR"
		},
		{
			"bufferView":4,
			"componentType":5126,
			"count":594,
			"max":[
				1,
				0.1931258589029312,
				1
			],
			"min":[
				-3.106534719467163,
				0.03789656236767769,
				-1
			],
			"type":"VEC3"
		},
		{
			"bufferView":5,
			"componentType":5126,
			"count":594,
			"type":"VEC3"
		},
		{
			"bufferView":6,
			"componentType":5126,
			"count":594,
			"type":"VEC2"
		},
		{
			"bufferView":7,
			"componentType":5123,
			"count":3576,
			"type":"SCALAR"
		}
	],
	"bufferViews":[
		{
			"buffer":0,
			"byteLength":15036,
			"byteOffset":0,
			"target":34962
		},
		{
			"buffer":0,
			"byteLength":15036,
			"byteOffset":15036,
			"target":34962
		},
		{
			"buffer":0,
			"byteLength":10024,
			"byteOffset":30072,
			"target":34962
		},
		{
			"buffer":0,
			"byteLength":15012,
			"byteOffset":40096,
			"target":34963
		},
		{
			"buffer":0,
			"byteLength":7128,
			"byteOffset":55108,
			"target":34962
		},
		{
			"buffer":0,
			"byteLength":7128,
			"byteOffset":62236,
			"target":34962
		},
		{
			"buffer":0,
			"byteLength":4752,
			"byteOffset":69364,
			"target":34962
		},
		{
			"buffer":0,
			"byteLength":7152,
			"byteOffset":74116,
			"target":34963
		}
	],
	"buffers":[
		{
			"byteLength":81268,
			"uri":"data:application/octet-stream;base64,"
		}
	]
}
